<svg id="Capa_1" data-name="Capa 1" xmlns="http://www.w3.org/2000/svg" viewBox="0 0 30 27.6"><defs><style>.cls-1{fill:green;}</style></defs><title>check</title><path class="cls-1" d="M246.63,149.2c-12.81,7.3-16.07,17.08-19.21,20.56s-4.94,0-4.94,0l-5.84-10.22,3.48-2.36,4.49,6.4s4-9.44,16.85-16.18Z" transform="translate(-216.63 -147.4)"/><path class="cls-1" d="M233,161.77a2.77,2.77,0,0,0-2.77-2.77H219.77a2.77,2.77,0,0,0-2.77,2.77v10.46a2.77,2.77,0,0,0,2.77,2.77h10.46a2.77,2.77,0,0,0,2.77-2.77V161.77Zm-2,8.89a2.34,2.34,0,0,1-2.34,2.34h-7.32a2.34,2.34,0,0,1-2.34-2.34v-7.32a2.34,2.34,0,0,1,2.34-2.34h7.32a2.34,2.34,0,0,1,2.34,2.34v7.32Z" transform="translate(-216.63 -147.4)"/></svg>